<svg width="32" height="32" viewBox="0 0 32 32" fill="none" xmlns="http://www.w3.org/2000/svg">
<path d="M9.13556 14.3467L8.45292 15.1666H9.51982H25.3331C25.5542 15.1666 25.7661 15.2544 25.9224 15.4107C26.0787 15.567 26.1665 15.779 26.1665 16C26.1665 16.221 26.0787 16.433 25.9224 16.5892C25.7661 16.7455 25.5542 16.8333 25.3331 16.8333H9.51982H8.45292L9.13556 17.6532L13.9756 23.4666L13.9757 23.4667C14.0459 23.5509 14.0987 23.6482 14.1313 23.7528C14.1638 23.8575 14.1754 23.9676 14.1653 24.0767C14.1552 24.1859 14.1238 24.2919 14.0726 24.3889C14.0215 24.4858 13.9518 24.5717 13.8675 24.6416C13.7175 24.7659 13.5288 24.8337 13.3341 24.8333L13.3323 24.8333C13.2099 24.8335 13.0889 24.8067 12.978 24.7549C12.8671 24.703 12.769 24.6274 12.6907 24.5333L12.6906 24.5332L6.03808 16.5502C6.01154 16.5112 5.98757 16.4704 5.96631 16.4283L5.9108 16.3181L5.89597 16.3075L5.89147 16.2962C5.85417 16.2018 5.83442 16.1014 5.83318 16C5.834 15.9322 5.84309 15.8649 5.86015 15.7996C5.89988 15.7543 5.9374 15.6996 5.96623 15.6337C5.98711 15.586 5.99996 15.5388 6.00783 15.4968C6.01751 15.4809 6.0276 15.4652 6.03808 15.4498L12.6906 7.46674L12.691 7.46625C12.8326 7.29594 13.036 7.18884 13.2565 7.16851C13.477 7.14818 13.6966 7.21628 13.8669 7.35783C14.0372 7.49939 14.1443 7.7028 14.1646 7.92332C14.185 8.14384 14.1169 8.36341 13.9753 8.53371L9.13556 14.3467Z" fill="#F2F2F2" stroke="#F2F2F2"/>
</svg>
